<?xml version="1.0" encoding="UTF-8" standalone="no"?>
<svg
   xmlns:dc="http://purl.org/dc/elements/1.1/"
   xmlns:cc="http://creativecommons.org/ns#"
   xmlns:rdf="http://www.w3.org/1999/02/22-rdf-syntax-ns#"
   xmlns:svg="http://www.w3.org/2000/svg"
   xmlns="http://www.w3.org/2000/svg"
   xmlns:sodipodi="http://sodipodi.sourceforge.net/DTD/sodipodi-0.dtd"
   xmlns:inkscape="http://www.inkscape.org/namespaces/inkscape"
   version="1.1"
   id="svg2"
   xml:space="preserve"
   width="529.37396"
   height="566.66895"
   viewBox="0 0 529.37396 566.66894"
   sodipodi:docname="keegor_head.svg"
   inkscape:version="1.0.1 (3bc2e813f5, 2020-09-07)"><metadata
     id="metadata8"><rdf:RDF><cc:Work
         rdf:about=""><dc:format>image/svg+xml</dc:format><dc:type
           rdf:resource="http://purl.org/dc/dcmitype/StillImage" /><dc:title></dc:title></cc:Work></rdf:RDF></metadata><defs
     id="defs6"><clipPath
       clipPathUnits="userSpaceOnUse"
       id="clipPath86"><path
         d="m 4130.93,3221.44 c -7.03,-41.42 294.4,85.05 391.03,163.15 162.26,131.13 172.33,255.79 154.83,279.94 -47.71,65.91 -502.99,-190.6 -545.86,-443.09 z"
         id="path84" /></clipPath><linearGradient
       x1="0"
       y1="0"
       x2="1"
       y2="0"
       gradientUnits="userSpaceOnUse"
       gradientTransform="matrix(-21.6947,435.691,-435.691,-21.6947,4417.01,3226.85)"
       spreadMethod="pad"
       id="linearGradient92"><stop
         style="stop-opacity:1;stop-color:#f25a2e"
         offset="0"
         id="stop88" /><stop
         style="stop-opacity:1;stop-color:#f79324"
         offset="1"
         id="stop90" /></linearGradient><clipPath
       clipPathUnits="userSpaceOnUse"
       id="clipPath114"><path
         d="m 4901.07,1814.34 c -0.01,0 -0.04,0 -0.05,0 0.01,0 0.04,0 0.05,0 v 0 m 0.1,0 c 4.69,0 9.38,0.06 14.1,0.18 v 0 c -4.72,-0.12 -9.41,-0.18 -14.1,-0.18 m 212.48,45.35 c 0,0 -0.01,-0.01 0,0 23.52,10.77 46.89,23.69 69.96,39.05 v 0 c -23.07,-15.36 -46.44,-28.29 -69.96,-39.05 m 216.13,175.78 c -2.97,3.74 -6.04,7.28 -9.19,10.6 4.93,100.44 -30.49,213.13 -197.8,251.49 -35.93,8.24 -71.82,12.09 -107.16,12.09 -67.83,0 -133.51,-14.21 -192.88,-38.86 -60.78,89.77 -103.75,201.34 -101.83,336.67 3.73,267.69 116.08,448.42 205.33,550.49 -2.88,0.07 -5.75,0.1 -8.64,0.1 -44.62,0 -90.68,-7.63 -137.96,-22.94 8.29,2.69 16.5,5.14 24.72,7.37 38.77,10.52 76.7,15.96 113.6,15.96 197.17,0 364.45,-155.34 469.09,-518.69 102.81,-357.3 -8.4,-543.75 -57.28,-604.28 m -377.34,1094.07 c -143.3,-211.62 -223.68,-589.22 0,-704.41 223.63,-115.2 357.44,-43.85 431.14,-228.16 0,0 62.97,822.74 -431.14,932.57"
         id="path112" /></clipPath><linearGradient
       x1="0"
       y1="0"
       x2="1"
       y2="0"
       gradientUnits="userSpaceOnUse"
       gradientTransform="matrix(1025.37,0,0,-1025.37,4403.9,2486.39)"
       spreadMethod="pad"
       id="linearGradient122"><stop
         style="stop-opacity:1;stop-color:#fbc642"
         offset="0"
         id="stop116" /><stop
         style="stop-opacity:1;stop-color:#ea7817"
         offset="0.840425"
         id="stop118" /><stop
         style="stop-opacity:1;stop-color:#ea7817"
         offset="1"
         id="stop120" /></linearGradient><clipPath
       clipPathUnits="userSpaceOnUse"
       id="clipPath152"><path
         d="m 5383.58,2196.97 c -73.7,184.31 -207.51,112.96 -431.14,228.16 -223.68,115.19 -143.3,492.79 0,704.41 494.11,-109.83 431.14,-932.57 431.14,-932.57"
         id="path150" /></clipPath><clipPath
       clipPathUnits="userSpaceOnUse"
       id="clipPath200"><path
         d="m 2894.57,2897.37 -63.71,984.35 c 0,0 619.51,-298.65 1409.63,0 1.17,0.42 0.56,-53.63 -0.04,-107.68 -0.6,-54.06 -1.18,-108.12 0.04,-107.68 l -81.45,-775.7 c 0,0 -1004.47,-437.38 -1264.47,6.71"
         id="path198" /></clipPath><clipPath
       clipPathUnits="userSpaceOnUse"
       id="clipPath214"><path
         d="m 2894.57,2897.37 -63.71,801.56 c 0,0 612.44,-333.79 1402.48,-35.18 2.39,0.92 4.7,1.73 7.15,2.61 l -81.45,-775.7 c 0,0 -1004.47,-437.39 -1264.47,6.71 z"
         id="path212" /></clipPath><linearGradient
       x1="0"
       y1="0"
       x2="1"
       y2="0"
       gradientUnits="userSpaceOnUse"
       gradientTransform="matrix(1409.63,0,0,-1409.63,2830.86,3198.59)"
       spreadMethod="pad"
       id="linearGradient222"><stop
         style="stop-opacity:1;stop-color:#fbc642"
         offset="0"
         id="stop216" /><stop
         style="stop-opacity:1;stop-color:#ea7817"
         offset="0.840425"
         id="stop218" /><stop
         style="stop-opacity:1;stop-color:#ea7817"
         offset="1"
         id="stop220" /></linearGradient><clipPath
       clipPathUnits="userSpaceOnUse"
       id="clipPath246"><path
         d="m 1808.35,5080.1 c 21.89,-96.81 -38.82,-192.99 -135.64,-214.85 -96.76,-21.86 -192.95,38.89 -214.82,135.68 -21.86,96.77 38.89,192.97 135.66,214.83 96.81,21.86 192.94,-38.89 214.8,-135.66 z"
         id="path244" /></clipPath><linearGradient
       x1="0"
       y1="0"
       x2="1"
       y2="0"
       gradientUnits="userSpaceOnUse"
       gradientTransform="matrix(359.385,0,0,-359.385,1453.43,5040.5)"
       spreadMethod="pad"
       id="linearGradient254"><stop
         style="stop-opacity:1;stop-color:#fbc642"
         offset="0"
         id="stop248" /><stop
         style="stop-opacity:1;stop-color:#ea7817"
         offset="0.840425"
         id="stop250" /><stop
         style="stop-opacity:1;stop-color:#ea7817"
         offset="1"
         id="stop252" /></linearGradient><clipPath
       clipPathUnits="userSpaceOnUse"
       id="clipPath264"><path
         d="m 1808.46,5080.24 c 21.88,-96.9 -38.9,-193.1 -135.81,-215.02 -87.38,-19.71 -174.69,28.02 -206.22,109.55 41.19,-35.5 98.48,-51.71 156.03,-38.71 96.66,21.83 157.29,118.26 135.48,214.93 -2.04,8.94 -4.65,17.76 -8.4,26.01 28.67,-24.26 50,-57.34 58.92,-96.76 z"
         id="path262" /></clipPath><linearGradient
       x1="0"
       y1="0"
       x2="1"
       y2="0"
       gradientUnits="userSpaceOnUse"
       gradientTransform="matrix(346.484,0,0,-346.484,1466.43,5018.89)"
       spreadMethod="pad"
       id="linearGradient272"><stop
         style="stop-opacity:1;stop-color:#fbc642"
         offset="0"
         id="stop266" /><stop
         style="stop-opacity:1;stop-color:#ea7817"
         offset="0.840425"
         id="stop268" /><stop
         style="stop-opacity:1;stop-color:#ea7817"
         offset="1"
         id="stop270" /></linearGradient><clipPath
       clipPathUnits="userSpaceOnUse"
       id="clipPath298"><path
         d="m 4865.66,5770.64 c 21.84,-96.81 118.06,-157.55 214.9,-135.66 96.71,21.83 157.44,118.02 135.6,214.83 -21.83,96.77 -118.06,157.5 -214.76,135.68 -96.84,-21.88 -157.6,-118.08 -135.74,-214.85 z"
         id="path296" /></clipPath><linearGradient
       x1="0"
       y1="0"
       x2="1"
       y2="0"
       gradientUnits="userSpaceOnUse"
       gradientTransform="matrix(359.399,0,0,-359.399,4861.21,5810.22)"
       spreadMethod="pad"
       id="linearGradient306"><stop
         style="stop-opacity:1;stop-color:#fbc642"
         offset="0"
         id="stop300" /><stop
         style="stop-opacity:1;stop-color:#ea7817"
         offset="0.840425"
         id="stop302" /><stop
         style="stop-opacity:1;stop-color:#ea7817"
         offset="1"
         id="stop304" /></linearGradient><clipPath
       clipPathUnits="userSpaceOnUse"
       id="clipPath316"><path
         d="m 5216.2,5849.93 c 21.89,-96.93 -38.83,-193.1 -135.74,-214.99 -83.86,-18.92 -167.59,24.24 -202.52,99.72 38.46,-22.98 85.34,-32.12 132.74,-21.4 96.63,21.82 157.37,117.98 135.5,214.92 -2.84,12.54 -6.8,24.49 -12.09,35.51 40.23,-24.11 70.93,-64.21 82.11,-113.76 z"
         id="path314" /></clipPath><linearGradient
       x1="0"
       y1="0"
       x2="1"
       y2="0"
       gradientUnits="userSpaceOnUse"
       gradientTransform="matrix(342.715,0,0,-342.715,4877.94,5797.09)"
       spreadMethod="pad"
       id="linearGradient324"><stop
         style="stop-opacity:1;stop-color:#fbc642"
         offset="0"
         id="stop318" /><stop
         style="stop-opacity:1;stop-color:#ea7817"
         offset="0.840425"
         id="stop320" /><stop
         style="stop-opacity:1;stop-color:#ea7817"
         offset="1"
         id="stop322" /></linearGradient><clipPath
       clipPathUnits="userSpaceOnUse"
       id="clipPath334"><path
         d="m 1559.08,5170.24 c -117.25,-26.48 -76.17,-208.29 41.05,-181.81 117.16,26.48 76.11,208.25 -41.05,181.81 z"
         id="path332" /></clipPath><linearGradient
       x1="0"
       y1="0"
       x2="1"
       y2="0"
       gradientUnits="userSpaceOnUse"
       gradientTransform="matrix(181.089,0,0,-181.089,1489.03,5079.33)"
       spreadMethod="pad"
       id="linearGradient342"><stop
         style="stop-opacity:1;stop-color:#fbc642"
         offset="0"
         id="stop336" /><stop
         style="stop-opacity:1;stop-color:#ea7817"
         offset="0.840425"
         id="stop338" /><stop
         style="stop-opacity:1;stop-color:#ea7817"
         offset="1"
         id="stop340" /></linearGradient><clipPath
       clipPathUnits="userSpaceOnUse"
       id="clipPath356"><path
         d="m 4998.51,5963.89 c -117.22,-26.44 -76.14,-208.22 41.04,-181.75 117.2,26.49 76.15,208.23 -41.04,181.75 z"
         id="path354" /></clipPath><linearGradient
       x1="0"
       y1="0"
       x2="1"
       y2="0"
       gradientUnits="userSpaceOnUse"
       gradientTransform="matrix(181.079,0,0,-181.079,4928.49,5873.02)"
       spreadMethod="pad"
       id="linearGradient364"><stop
         style="stop-opacity:1;stop-color:#fbc642"
         offset="0"
         id="stop358" /><stop
         style="stop-opacity:1;stop-color:#ea7817"
         offset="0.840425"
         id="stop360" /><stop
         style="stop-opacity:1;stop-color:#ea7817"
         offset="1"
         id="stop362" /></linearGradient><clipPath
       clipPathUnits="userSpaceOnUse"
       id="clipPath380"><path
         d="m 2719.67,4155.31 c -115.24,0 -199.2,16.1 -234.5,53.62 -70.48,74.96 -168.66,287.78 -257.29,546.6 v 0.01 c -14.07,41.1 -27.9,83.34 -41.34,126.4 -69.8,223.56 -129.07,468.44 -156.88,683.12 -28.28,218.25 -24.05,405.33 34.69,506.91 49.43,85.14 190.65,173.48 378.36,254.1 11.2,4.71 22.6,9.8 34.04,14.58 19.24,7.78 39.37,15.81 59.55,23.51 11.84,4.56 23.96,9.18 35.88,13.41 300.39,112.03 679.1,202.29 997.33,238.15 13.78,1.54 27.16,3.26 40.67,4.47 18.98,2.09 37.75,3.82 56.24,5.19 12.6,0.95 24.94,1.86 37.34,2.48 46.08,2.98 90.23,4.53 131.94,4.53 166.12,0 293.5,-24.62 349.46,-81.41 72.66,-73.94 159.3,-239.77 239.54,-444.96 77.05,-197.02 148.2,-430.35 195.43,-653.4 10.77,-50.85 20.28,-101.12 28.35,-150.36 v -0.02 c 46.41,-283.29 44.58,-530.73 -46.17,-637.34 -138.2,-162.28 -1347.47,-509.59 -1882.64,-509.59 m -10.95,156.04 c -1.75,0 -3.54,-0.26 -5.3,-0.81 l -167.32,-51.81 c -9.39,-2.91 -14.63,-12.88 -11.7,-22.27 l 1.2,-3.85 c 2.35,-7.62 9.37,-12.54 16.97,-12.54 1.74,0 3.52,0.26 5.27,0.8 l 167.38,51.82 c 9.35,2.91 14.62,12.89 11.69,22.28 l -1.19,3.84 c -2.35,7.65 -9.39,12.54 -17,12.54 m -28.46,91.87 c -1.74,0 -3.5,-0.26 -5.25,-0.8 l -167.32,-51.83 c -9.41,-2.89 -14.64,-12.87 -11.73,-22.28 l 1.18,-3.84 c 2.36,-7.64 9.37,-12.54 16.97,-12.55 1.74,0 3.52,0.27 5.28,0.81 l 167.36,51.82 c 9.36,2.91 14.65,12.9 11.7,22.27 l -1.18,3.84 c -2.36,7.65 -9.42,12.56 -17.01,12.56 m 1898.33,327.9 c -1.56,0 -3.14,-0.21 -4.71,-0.64 l -168.99,-46.09 c -9.52,-2.59 -15.09,-12.37 -12.52,-21.86 l 1.08,-3.89 c 2.16,-7.92 9.34,-13.12 17.16,-13.12 1.54,0 3.11,0.2 4.67,0.63 l 169.04,46.1 c 9.47,2.58 15.05,12.37 12.44,21.85 l -1.04,3.9 c -2.17,7.91 -9.33,13.12 -17.13,13.12 m -25.32,92.78 c -1.55,0 -3.13,-0.21 -4.7,-0.64 l -168.99,-46.08 c -9.5,-2.59 -15.12,-12.39 -12.51,-21.88 l 1.07,-3.88 c 2.15,-7.92 9.33,-13.13 17.17,-13.13 1.55,0 3.12,0.2 4.69,0.63 l 168.99,46.1 c 9.5,2.59 15.07,12.37 12.48,21.85 l -1.05,3.91 c -2.17,7.91 -9.33,13.12 -17.15,13.12 m -138.38,455.94 c -3.18,0 -6.42,-0.41 -9.63,-1.29 l -586.93,-160.1 c -19.51,-5.33 -31.02,-25.45 -25.67,-44.96 l 32.35,-118.7 c 4.48,-16.28 19.21,-27 35.32,-27 3.2,0 6.45,0.42 9.68,1.31 l 586.88,160.1 c 19.48,5.32 30.99,25.46 25.68,44.95 l -32.39,118.71 c -4.44,16.28 -19.21,26.98 -35.29,26.98 M 3210.85,5146.51 c -1.96,0 -3.92,-0.16 -5.89,-0.49 -16.39,-3.97 -26.49,-20.5 -22.49,-36.88 25.71,-106.32 126.24,-149.76 224.92,-149.76 18.28,0 36.48,1.49 54.15,4.34 7.18,1.16 14.32,2.55 21.52,4.15 112.53,25.44 221.18,107.3 210.38,237.14 -1.37,15.97 -14.7,28.03 -30.47,28.03 -0.85,0 -1.7,-0.03 -2.56,-0.1 -16.76,-1.25 -29.35,-16.17 -27.9,-33 8.28,-99.38 -87.85,-160.78 -180.82,-175.84 -15.38,-2.49 -31.08,-3.8 -46.64,-3.8 -74.34,0 -145.42,29.91 -163.2,103.24 -3.48,14.43 -16.77,22.97 -31,22.97 m -318.97,207.5 c -10.04,0 -20.24,-1.11 -30.44,-3.41 -74.13,-16.77 -120.6,-90.42 -103.88,-164.54 14.44,-63.91 71.2,-107.33 134.08,-107.33 10.04,0 20.22,1.1 30.42,3.4 74.11,16.73 120.69,90.45 103.98,164.55 -14.45,63.93 -71.25,107.33 -134.16,107.33 m 976.85,220.62 c -10.04,0 -20.24,-1.11 -30.44,-3.42 -74.17,-16.73 -120.64,-90.42 -103.88,-164.56 14.41,-63.87 71.16,-107.29 134.04,-107.29 10.05,0 20.25,1.11 30.46,3.42 74.11,16.73 120.65,90.45 103.95,164.53 -14.46,63.9 -71.25,107.32 -134.13,107.32"
         id="path378" /></clipPath><linearGradient
       x1="0"
       y1="0"
       x2="1"
       y2="0"
       gradientUnits="userSpaceOnUse"
       gradientTransform="matrix(2665.73,0,0,-2665.73,2012.71,5393.85)"
       spreadMethod="pad"
       id="linearGradient388"><stop
         style="stop-opacity:1;stop-color:#fbc642"
         offset="0"
         id="stop382" /><stop
         style="stop-opacity:1;stop-color:#ea7817"
         offset="0.840425"
         id="stop384" /><stop
         style="stop-opacity:1;stop-color:#ea7817"
         offset="1"
         id="stop386" /></linearGradient><clipPath
       clipPathUnits="userSpaceOnUse"
       id="clipPath400"><path
         d="m 2167.06,6052.09 c -117.2,-26.45 -76.11,-208.23 41.05,-181.75 117.25,26.48 76.2,208.23 -41.05,181.75 z"
         id="path398" /></clipPath><linearGradient
       x1="0"
       y1="0"
       x2="1"
       y2="0"
       gradientUnits="userSpaceOnUse"
       gradientTransform="matrix(181.108,0,0,-181.108,2097.06,5961.21)"
       spreadMethod="pad"
       id="linearGradient408"><stop
         style="stop-opacity:1;stop-color:#fbc642"
         offset="0"
         id="stop402" /><stop
         style="stop-opacity:1;stop-color:#ea7817"
         offset="0.840425"
         id="stop404" /><stop
         style="stop-opacity:1;stop-color:#ea7817"
         offset="1"
         id="stop406" /></linearGradient><clipPath
       clipPathUnits="userSpaceOnUse"
       id="clipPath418"><path
         d="m 2891.64,5078.73 c -62.88,0 -119.64,43.42 -134.08,107.33 -16.72,74.12 29.75,147.77 103.88,164.54 10.2,2.3 20.4,3.41 30.44,3.41 62.91,0 119.71,-43.4 134.16,-107.33 16.71,-74.1 -29.87,-147.82 -103.98,-164.55 -10.2,-2.3 -20.38,-3.4 -30.42,-3.4"
         id="path416" /></clipPath><linearGradient
       x1="0"
       y1="0"
       x2="1"
       y2="0"
       gradientUnits="userSpaceOnUse"
       gradientTransform="matrix(2665.73,0,0,-2665.73,2012.71,5393.85)"
       spreadMethod="pad"
       id="linearGradient426"><stop
         style="stop-opacity:1;stop-color:#95732e"
         offset="0"
         id="stop420" /><stop
         style="stop-opacity:1;stop-color:#8a461c"
         offset="0.840425"
         id="stop422" /><stop
         style="stop-opacity:1;stop-color:#8a461c"
         offset="1"
         id="stop424" /></linearGradient><clipPath
       clipPathUnits="userSpaceOnUse"
       id="clipPath436"><path
         d="m 3868.45,5299.36 c -62.88,0 -119.63,43.42 -134.04,107.29 -16.76,74.14 29.71,147.83 103.88,164.56 10.2,2.31 20.4,3.42 30.44,3.42 62.88,0 119.67,-43.42 134.13,-107.32 16.7,-74.08 -29.84,-147.8 -103.95,-164.53 -10.21,-2.31 -20.41,-3.42 -30.46,-3.42"
         id="path434" /></clipPath><linearGradient
       x1="0"
       y1="0"
       x2="1"
       y2="0"
       gradientUnits="userSpaceOnUse"
       gradientTransform="matrix(2665.73,0,0,-2665.73,2012.71,5393.85)"
       spreadMethod="pad"
       id="linearGradient444"><stop
         style="stop-opacity:1;stop-color:#95732e"
         offset="0"
         id="stop438" /><stop
         style="stop-opacity:1;stop-color:#8a461c"
         offset="0.840425"
         id="stop440" /><stop
         style="stop-opacity:1;stop-color:#8a461c"
         offset="1"
         id="stop442" /></linearGradient><clipPath
       clipPathUnits="userSpaceOnUse"
       id="clipPath454"><path
         d="m 3407.39,4959.38 c -98.68,0 -199.21,43.44 -224.92,149.76 -4,16.38 6.1,32.91 22.49,36.88 1.97,0.33 3.93,0.49 5.89,0.49 14.23,0 27.52,-8.54 31,-22.97 17.78,-73.33 88.86,-103.24 163.2,-103.24 15.56,0 31.26,1.31 46.64,3.8 92.97,15.06 189.1,76.46 180.82,175.84 -1.45,16.83 11.14,31.75 27.9,33 0.86,0.07 1.71,0.1 2.56,0.1 15.77,0 29.1,-12.06 30.47,-28.03 10.8,-129.84 -97.85,-211.7 -210.38,-237.14 -7.2,-1.6 -14.34,-2.99 -21.52,-4.15 -17.67,-2.85 -35.87,-4.34 -54.15,-4.34"
         id="path452" /></clipPath><linearGradient
       x1="0"
       y1="0"
       x2="1"
       y2="0"
       gradientUnits="userSpaceOnUse"
       gradientTransform="matrix(2665.73,0,0,-2665.73,2012.71,5393.85)"
       spreadMethod="pad"
       id="linearGradient462"><stop
         style="stop-opacity:1;stop-color:#95732e"
         offset="0"
         id="stop456" /><stop
         style="stop-opacity:1;stop-color:#8a461c"
         offset="0.840425"
         id="stop458" /><stop
         style="stop-opacity:1;stop-color:#8a461c"
         offset="1"
         id="stop460" /></linearGradient><clipPath
       clipPathUnits="userSpaceOnUse"
       id="clipPath484"><path
         d="m 4385.31,4738.29 c -7.84,0 -15.02,5.21 -17.17,13.13 l -1.07,3.88 c -2.61,9.49 3.01,19.29 12.51,21.88 l 168.99,46.08 c 1.57,0.43 3.15,0.64 4.7,0.64 7.82,0 14.98,-5.21 17.15,-13.12 l 1.05,-3.91 c 2.59,-9.48 -2.98,-19.26 -12.48,-21.85 L 4390,4738.92 c -1.57,-0.43 -3.14,-0.63 -4.69,-0.63"
         id="path482" /></clipPath><linearGradient
       x1="0"
       y1="0"
       x2="1"
       y2="0"
       gradientUnits="userSpaceOnUse"
       gradientTransform="matrix(2665.73,0,0,-2665.73,2012.71,5393.85)"
       spreadMethod="pad"
       id="linearGradient492"><stop
         style="stop-opacity:1;stop-color:#f08937"
         offset="0"
         id="stop486" /><stop
         style="stop-opacity:1;stop-color:#dd521e"
         offset="0.840425"
         id="stop488" /><stop
         style="stop-opacity:1;stop-color:#dd521e"
         offset="1"
         id="stop490" /></linearGradient><clipPath
       clipPathUnits="userSpaceOnUse"
       id="clipPath502"><path
         d="m 4410.61,4645.52 c -7.82,0 -15,5.2 -17.16,13.12 l -1.08,3.89 c -2.57,9.49 3,19.27 12.52,21.86 l 168.99,46.09 c 1.57,0.43 3.15,0.64 4.71,0.64 7.8,0 14.96,-5.21 17.13,-13.12 l 1.04,-3.9 c 2.61,-9.48 -2.97,-19.27 -12.44,-21.85 l -169.04,-46.1 c -1.56,-0.43 -3.13,-0.63 -4.67,-0.63"
         id="path500" /></clipPath><linearGradient
       x1="0"
       y1="0"
       x2="1"
       y2="0"
       gradientUnits="userSpaceOnUse"
       gradientTransform="matrix(2665.73,0,0,-2665.73,2012.71,5393.85)"
       spreadMethod="pad"
       id="linearGradient510"><stop
         style="stop-opacity:1;stop-color:#f08937"
         offset="0"
         id="stop504" /><stop
         style="stop-opacity:1;stop-color:#dd521e"
         offset="0.840425"
         id="stop506" /><stop
         style="stop-opacity:1;stop-color:#dd521e"
         offset="1"
         id="stop508" /></linearGradient><clipPath
       clipPathUnits="userSpaceOnUse"
       id="clipPath522"><path
         d="m 2514.11,4311.92 c -7.6,0.01 -14.61,4.91 -16.97,12.55 l -1.18,3.84 c -2.91,9.41 2.32,19.39 11.73,22.28 l 167.32,51.83 c 1.75,0.54 3.51,0.8 5.25,0.8 7.59,0 14.65,-4.91 17.01,-12.56 l 1.18,-3.84 c 2.95,-9.37 -2.34,-19.36 -11.7,-22.27 l -167.36,-51.82 c -1.76,-0.54 -3.54,-0.81 -5.28,-0.81"
         id="path520" /></clipPath><linearGradient
       x1="0"
       y1="0"
       x2="1"
       y2="0"
       gradientUnits="userSpaceOnUse"
       gradientTransform="matrix(2665.73,0,0,-2665.73,2012.71,5393.85)"
       spreadMethod="pad"
       id="linearGradient530"><stop
         style="stop-opacity:1;stop-color:#f08937"
         offset="0"
         id="stop524" /><stop
         style="stop-opacity:1;stop-color:#dd521e"
         offset="0.840425"
         id="stop526" /><stop
         style="stop-opacity:1;stop-color:#dd521e"
         offset="1"
         id="stop528" /></linearGradient><clipPath
       clipPathUnits="userSpaceOnUse"
       id="clipPath540"><path
         d="m 2542.57,4220.07 c -7.6,0 -14.62,4.92 -16.97,12.54 l -1.2,3.85 c -2.93,9.39 2.31,19.36 11.7,22.27 l 167.32,51.81 c 1.76,0.55 3.55,0.81 5.3,0.81 7.61,0 14.65,-4.89 17,-12.54 l 1.19,-3.84 c 2.93,-9.39 -2.34,-19.37 -11.69,-22.28 l -167.38,-51.82 c -1.75,-0.54 -3.53,-0.8 -5.27,-0.8"
         id="path538" /></clipPath><linearGradient
       x1="0"
       y1="0"
       x2="1"
       y2="0"
       gradientUnits="userSpaceOnUse"
       gradientTransform="matrix(2665.73,0,0,-2665.73,2012.71,5393.85)"
       spreadMethod="pad"
       id="linearGradient548"><stop
         style="stop-opacity:1;stop-color:#f08937"
         offset="0"
         id="stop542" /><stop
         style="stop-opacity:1;stop-color:#dd521e"
         offset="0.840425"
         id="stop544" /><stop
         style="stop-opacity:1;stop-color:#dd521e"
         offset="1"
         id="stop546" /></linearGradient><clipPath
       clipPathUnits="userSpaceOnUse"
       id="clipPath588"><path
         d="m 3359.01,6245.51 -401.33,-92.62 c -46.68,-10.77 -93.69,18.63 -104.46,65.32 -10.74,46.67 18.62,93.69 65.27,104.46 l 401.37,92.62 c 46.69,10.78 93.69,-18.63 104.46,-65.3 10.77,-46.68 -18.57,-93.71 -65.31,-104.48 z"
         id="path586" /></clipPath><linearGradient
       x1="0"
       y1="0"
       x2="1"
       y2="0"
       gradientUnits="userSpaceOnUse"
       gradientTransform="matrix(575.542,0,0,-575.542,2851.01,6284.1)"
       spreadMethod="pad"
       id="linearGradient596"><stop
         style="stop-opacity:1;stop-color:#fbc642"
         offset="0"
         id="stop590" /><stop
         style="stop-opacity:1;stop-color:#ea7817"
         offset="0.840425"
         id="stop592" /><stop
         style="stop-opacity:1;stop-color:#ea7817"
         offset="1"
         id="stop594" /></linearGradient><clipPath
       clipPathUnits="userSpaceOnUse"
       id="clipPath610"><path
         d="m 2935.72,3172.65 c 7.05,-41.42 -294.4,85.06 -391.03,163.14 -162.25,131.15 -172.31,255.8 -154.83,279.96 47.71,65.91 502.98,-190.62 545.86,-443.1 z"
         id="path608" /></clipPath><linearGradient
       x1="0"
       y1="0"
       x2="1"
       y2="0"
       gradientUnits="userSpaceOnUse"
       gradientTransform="matrix(21.6947,435.691,435.691,-21.6947,2649.66,3178.06)"
       spreadMethod="pad"
       id="linearGradient616"><stop
         style="stop-opacity:1;stop-color:#f25a2e"
         offset="0"
         id="stop612" /><stop
         style="stop-opacity:1;stop-color:#f79324"
         offset="1"
         id="stop614" /></linearGradient><clipPath
       clipPathUnits="userSpaceOnUse"
       id="clipPath630"><path
         d="m 2904.23,3719.2 c -118.65,0 -262.01,36.49 -378.88,74.45 87.76,74.2 177.35,89.77 237.04,89.77 43.11,0 70.62,-8.11 70.62,-8.11 32.02,-48.92 56.08,-101.94 73.95,-156.11 -0.9,0 -1.83,0 -2.73,0"
         id="path628" /></clipPath><clipPath
       clipPathUnits="userSpaceOnUse"
       id="clipPath646"><path
         d="m 2165.58,1765.55 v 0 c 0.01,0 0.03,0 0.05,0 -0.02,0 -0.04,0 -0.05,0 m -0.1,0 c -4.69,0 -9.38,0.06 -14.1,0.18 v 0 c 4.72,-0.12 9.41,-0.18 14.1,-0.18 m -212.46,45.34 c -23.54,10.76 -46.9,23.69 -69.99,39.06 v 0 c 23.07,-15.36 46.47,-28.29 69.99,-39.06 v 0 m -216.15,175.79 c -48.87,60.53 -160.09,246.98 -57.26,604.28 104.62,363.34 271.93,518.7 469.11,518.7 36.89,0 74.79,-5.43 113.56,-15.96 9.02,-2.45 18.07,-5.17 27.16,-8.16 40.5,-13.32 76.79,-31.33 109.31,-53.34 24.01,-16.24 45.95,-34.66 66,-54.98 115.23,-116.77 167.83,-296.18 189.01,-484.86 v 0 c -29.86,265.97 -122.13,513.51 -364.32,593.18 -48.17,15.85 -95.06,23.71 -140.45,23.71 -2.87,0 -5.72,-0.03 -8.58,-0.09 89.23,-102.07 201.59,-282.8 205.32,-550.48 1.93,-135.34 -41.05,-246.9 -101.82,-336.67 -59.37,24.65 -125.06,38.85 -192.89,38.85 -35.34,0 -71.22,-3.84 -107.14,-12.08 -167.33,-38.36 -202.76,-151.06 -197.82,-251.5 -3.15,-3.32 -6.22,-6.86 -9.19,-10.6 m 377.36,1094.07 c -494.14,-109.82 -431.17,-932.56 -431.17,-932.56 73.7,184.28 207.52,112.97 431.17,228.15 223.68,115.2 143.28,492.79 0,704.41"
         id="path644" /></clipPath><linearGradient
       x1="0"
       y1="0"
       x2="1"
       y2="0"
       gradientUnits="userSpaceOnUse"
       gradientTransform="matrix(1025.37,0,0,-1025.37,1637.39,2437.59)"
       spreadMethod="pad"
       id="linearGradient654"><stop
         style="stop-opacity:1;stop-color:#fbc642"
         offset="0"
         id="stop648" /><stop
         style="stop-opacity:1;stop-color:#ea7817"
         offset="0.840425"
         id="stop650" /><stop
         style="stop-opacity:1;stop-color:#ea7817"
         offset="1"
         id="stop652" /></linearGradient><clipPath
       clipPathUnits="userSpaceOnUse"
       id="clipPath682"><path
         d="m 1683.06,2148.19 c 0,0 -62.97,822.74 431.17,932.56 143.28,-211.62 223.68,-589.21 0,-704.41 -223.65,-115.18 -357.47,-43.87 -431.17,-228.15"
         id="path680" /></clipPath><clipPath
       clipPathUnits="userSpaceOnUse"
       id="clipPath734"><path
         d="m 4190.33,785.563 c -177.19,0 -353.24,32.359 -520.83,90.386 10.73,299.931 48.56,598.911 112.92,892.021 20.48,10.01 41.75,19.9 63.54,29.48 -14.57,-154.9 -14.07,-311.91 1.56,-466.83 l 1.38,-13.36 11.45,7.02 c 93.35,56.77 198.37,103.29 320.91,142.19 2.1,-1.12 4.18,-2.26 6.27,-3.42 19.17,-88.17 36.04,-176.84 50.57,-265.91 50.35,-49.43 103.01,-101.31 154.27,-151.73 -15.04,106.81 -36.12,209.34 -58.6,301.42 l 0.05,0.04 c 38.4,-157.25 72.71,-345.02 79.79,-532.479 -61.28,-15.27 -130.13,-27.231 -193.3,-28.52 -9.99,-0.199 -20,-0.308 -29.98,-0.308 M 3863.1,1345.68 c -14.4,151.06 -14.35,304.07 0.21,455.02 l -8.14,0.77 c 33.3,14.41 67.72,28.06 102.33,40.28 36.61,12.92 73.42,24.25 109.36,33.22 4.98,1.24 9.95,2.44 14.9,3.59 47.24,-33.87 96.01,-86.1 129.67,-133.57 v 0 0 c -33.66,47.47 -82.43,99.7 -129.67,133.57 l -2.51,-0.6 c 39.59,-129.67 74.15,-260.87 103.52,-393.23 l -3.27,-1 c -120.23,-37.99 -223.86,-83.18 -316.4,-138.05 m 466.18,19.56 c -0.03,0.04 -0.05,0.08 -0.09,0.11 -55.43,221.87 -117.35,378.6 -117.76,379.64 0.42,-1.05 62.41,-157.84 117.85,-379.75 m -117.85,379.75 v 0 0"
         id="path732" /></clipPath><linearGradient
       x1="0"
       y1="0"
       x2="1"
       y2="0"
       gradientUnits="userSpaceOnUse"
       gradientTransform="matrix(-772.484,-498.297,-498.297,772.484,4451.1,1518.96)"
       spreadMethod="pad"
       id="linearGradient742"><stop
         style="stop-opacity:1;stop-color:#fbc642"
         offset="0"
         id="stop736" /><stop
         style="stop-opacity:1;stop-color:#ea7817"
         offset="0.840425"
         id="stop738" /><stop
         style="stop-opacity:1;stop-color:#ea7817"
         offset="1"
         id="stop740" /></linearGradient><clipPath
       clipPathUnits="userSpaceOnUse"
       id="clipPath754"><path
         d="m 4438.35,817.059 c 0,0 -20.18,-67.188 -37.57,-96.239 -124.97,11.039 -244.27,38.84 -363.4,78.129 29.57,122.391 94.16,254.651 163.04,360.131 199.97,-113.4 237.93,-342.021 237.93,-342.021 z"
         id="path752" /></clipPath><linearGradient
       x1="0"
       y1="0"
       x2="1"
       y2="0"
       gradientUnits="userSpaceOnUse"
       gradientTransform="matrix(-289.783,-314.26,-314.26,289.783,4413.29,1062.16)"
       spreadMethod="pad"
       id="linearGradient762"><stop
         style="stop-opacity:1;stop-color:#f5edc2"
         offset="0"
         id="stop756" /><stop
         style="stop-opacity:1;stop-color:#709694"
         offset="0.840425"
         id="stop758" /><stop
         style="stop-opacity:1;stop-color:#709694"
         offset="1"
         id="stop760" /></linearGradient><clipPath
       clipPathUnits="userSpaceOnUse"
       id="clipPath776"><path
         d="m 4392.37,1045.41 c -51.26,50.42 -103.92,102.3 -154.27,151.73 -14.53,89.07 -31.4,177.74 -50.57,265.91 52.03,-28.97 101.08,-71.86 139.02,-121.71 l 7.22,5.49 c 22.48,-92.08 43.56,-194.61 58.6,-301.42 m -63.18,319.94 c -40.12,48.83 -90.41,90.25 -143.21,117.79 l -3.12,1.62 -0.09,-0.03 c -29.37,132.36 -63.93,263.56 -103.52,393.23 l 2.51,0.6 c 47.24,-33.87 96.01,-86.1 129.67,-133.57 v 0 0 0 0 c 0.41,-1.04 62.33,-157.77 117.76,-379.64"
         id="path774" /></clipPath><clipPath
       clipPathUnits="userSpaceOnUse"
       id="clipPath788"><path
         d="m 4326.55,1341.34 c -37.94,49.85 -86.99,92.74 -139.02,121.71 -1.57,7.23 -3.16,14.46 -4.76,21.68 l 0.09,0.03 3.12,-1.62 c 52.8,-27.54 103.09,-68.96 143.21,-117.79 1.53,-6.12 3.06,-12.3 4.58,-18.52 l -7.22,-5.49"
         id="path786" /></clipPath><linearGradient
       x1="0"
       y1="0"
       x2="1"
       y2="0"
       gradientUnits="userSpaceOnUse"
       gradientTransform="matrix(-100.605,-709.055,-709.055,100.605,4288.73,1834.54)"
       spreadMethod="pad"
       id="linearGradient798"><stop
         style="stop-opacity:1;stop-color:#f4c796"
         offset="0"
         id="stop790" /><stop
         style="stop-opacity:1;stop-color:#f4c796"
         offset="0.167598"
         id="stop792" /><stop
         style="stop-opacity:1;stop-color:#d53e29"
         offset="0.991477"
         id="stop794" /><stop
         style="stop-opacity:1;stop-color:#d53e29"
         offset="1"
         id="stop796" /></linearGradient><clipPath
       clipPathUnits="userSpaceOnUse"
       id="clipPath808"><path
         d="m 3584.85,1967.79 c -9.07,57.49 -20.3,115.42 -33.25,171.34 -62.35,6.96 -131.54,10.43 -195.64,13.22 -29.48,106.88 -54.6,214.97 -75.51,323.91 -14.59,75.99 -27.12,152.39 -37.65,229.07 209.52,9.5 418.68,14.46 627.44,14.46 80.76,0 161.48,-0.74 242.11,-2.25 15.46,-0.29 30.91,-0.61 46.37,-0.95 2.68,-182.83 -44.08,-378.01 -133.4,-537.58 -7.59,-1.72 -15.23,-3.58 -22.88,-5.61 -28.73,-7.61 -57.69,-17.51 -85.78,-30.43 -6.27,-2.89 -12.51,-5.93 -18.68,-9.13 -15.61,-38.74 -36.48,-75.28 -61.47,-108.76 -9.66,-12.94 -19.93,-25.42 -30.74,-37.39 -73.02,-11.47 -146.89,-17.83 -220.92,-19.9 m 372.73,608.82 c 17.57,-2.38 35.1,-4.73 52.61,-7.04 6.85,-106.87 -13.61,-226.32 -60.39,-322.71 -31.27,-18.03 -72.95,-33.67 -104.25,-51.74 -21.08,-54.58 -27.69,-126.57 -48.75,-181.19 38.12,41.73 74.64,95.91 85.72,151.3 39.41,16.12 84.61,30.1 124.07,46.25 64.7,137.68 102.79,301.2 111.59,453.11 -48.1,3.6 -96.23,6.65 -144.4,9.13 2.18,15.12 4.21,30.21 6.07,45.27 -5.88,0.05 -11.77,0.2 -17.67,0.22 -1.85,-14.84 -3.86,-29.71 -6.03,-44.61 -101.07,4.92 -202.28,7.38 -303.48,7.38 -67.38,0 -134.77,-1.09 -202.13,-3.27 l -6.67,34.14 c -5.89,-0.19 -11.85,-0.45 -17.77,-0.67 l 6.66,-34.07 c -48.05,-1.69 -96.06,-3.94 -144.07,-6.75 49.57,-6.53 99.4,-13.38 149.39,-20.43 l 56.36,-288.3 5.95,-1.02 c 63.13,-10.92 126.3,-16.39 189.14,-16.39 9.16,0 18.31,0.12 27.45,0.35 62.37,1.57 124.43,8.58 185.6,21 l 5.27,1.03 1.46,5.17 c 19.4,67.96 35.45,136.07 48.27,203.84 m -268.07,-213.8 c -59.84,0 -119.99,5.03 -180.16,15.12 l -52.87,270.4 c 160.99,-22.81 323.42,-47.43 483.67,-69.34 -12.36,-65.26 -27.75,-130.83 -46.28,-196.27 -67.33,-13.27 -135.64,-19.91 -204.36,-19.91"
         id="path806" /></clipPath><linearGradient
       x1="0"
       y1="0"
       x2="1"
       y2="0"
       gradientUnits="userSpaceOnUse"
       gradientTransform="matrix(-286.318,-980.916,-980.916,286.318,3785.28,2915.07)"
       spreadMethod="pad"
       id="linearGradient816"><stop
         style="stop-opacity:1;stop-color:#fbc642"
         offset="0"
         id="stop810" /><stop
         style="stop-opacity:1;stop-color:#ea7817"
         offset="0.840425"
         id="stop812" /><stop
         style="stop-opacity:1;stop-color:#ea7817"
         offset="1"
         id="stop814" /></linearGradient><clipPath
       clipPathUnits="userSpaceOnUse"
       id="clipPath830"><path
         d="m 3796.8,2013.93 c 21.06,54.62 27.67,126.61 48.75,181.19 31.3,18.07 72.98,33.71 104.25,51.74 46.78,96.39 67.24,215.84 60.39,322.71 -17.51,2.31 -35.04,4.66 -52.61,7.04 6.14,32.46 11.54,64.86 16.2,97.11 48.17,-2.48 96.3,-5.53 144.4,-9.13 -8.8,-151.91 -46.89,-315.43 -111.59,-453.11 -39.46,-16.15 -84.66,-30.13 -124.07,-46.25 -11.08,-55.39 -47.6,-109.57 -85.72,-151.3 m 143.35,565.06 c -160.25,21.91 -322.68,46.53 -483.67,69.34 l -5.94,30.38 c 67.36,2.18 134.75,3.27 202.13,3.27 101.2,0 202.41,-2.46 303.48,-7.38 -4.61,-31.76 -9.94,-63.65 -16,-95.61 m -502.07,71.94 c -49.99,7.05 -99.82,13.9 -149.39,20.43 48.01,2.81 96.02,5.06 144.07,6.75 l 5.32,-27.18"
         id="path828" /></clipPath><clipPath
       clipPathUnits="userSpaceOnUse"
       id="clipPath842"><path
         d="m 3957.58,2576.61 c -5.8,0.79 -11.62,1.58 -17.43,2.38 6.06,31.96 11.39,63.85 16,95.61 5.87,-0.28 11.76,-0.58 17.63,-0.88 -4.66,-32.25 -10.06,-64.65 -16.2,-97.11 m -501.1,71.72 c -6.12,0.87 -12.28,1.74 -18.4,2.6 l -5.32,27.18 c 5.93,0.21 11.86,0.41 17.78,0.6 l 5.94,-30.38"
         id="path840" /></clipPath><linearGradient
       x1="0"
       y1="0"
       x2="1"
       y2="0"
       gradientUnits="userSpaceOnUse"
       gradientTransform="matrix(-580.653,-705.108,-705.108,580.653,4087.86,2975.99)"
       spreadMethod="pad"
       id="linearGradient850"><stop
         style="stop-opacity:1;stop-color:#f4c796"
         offset="0"
         id="stop844" /><stop
         style="stop-opacity:1;stop-color:#f4c796"
         offset="0.167598"
         id="stop846" /><stop
         style="stop-opacity:1;stop-color:#d53e29"
         offset="1"
         id="stop848" /></linearGradient><clipPath
       clipPathUnits="userSpaceOnUse"
       id="clipPath864"><path
         d="m 2916.44,854.941 c -33.47,0 -68.95,1.168 -107.31,3.84 -93.21,28.098 -191.13,64.61 -281.94,99.649 70.21,310.53 182.3,611.77 332.27,892.69 0,0 103.49,109.13 167.73,143.19 29.67,-10.51 59.69,-22.63 89.47,-36.17 32.77,-14.89 65.25,-31.49 96.67,-49.52 25.67,-14.73 50.64,-30.42 74.47,-46.92 l -13,3.34 c -0.63,-2.43 -1.27,-4.88 -1.91,-7.34 -67.14,46.86 -145.55,82.34 -222.9,106.3 -34.68,-137.65 -64.32,-276.54 -88.86,-416.28 l -1.04,-0.41 c -53.25,-21.46 -115.03,-48.73 -169.48,-88.11 l 9.97,-13.74 c 50.06,36.21 106.89,62.02 157.14,82.59 -9.51,-55.27 -18.22,-110.67 -26.12,-166.18 112.47,-123.77 194.19,-280.2 225.83,-442.6 28.56,1.453 61.54,2.41 90.07,3.82 44.48,285.24 66.58,609.5 72.58,898.08 -10.43,8.97 -21.27,17.62 -32.47,25.93 1.1,4.19 2.19,8.35 3.25,12.47 6.27,-4.37 12.46,-8.8 18.56,-13.28 6.34,-4.67 12.59,-9.39 18.74,-14.17 6.01,-8.91 -24.22,-630.5 -65.22,-943.241 -117.29,-16.277 -216.62,-33.938 -346.5,-33.938"
         id="path862" /></clipPath><linearGradient
       x1="0"
       y1="0"
       x2="1"
       y2="0"
       gradientUnits="userSpaceOnUse"
       gradientTransform="matrix(-1115.65,-519.05,-519.05,1115.65,3526.6,1619.1)"
       spreadMethod="pad"
       id="linearGradient872"><stop
         style="stop-opacity:1;stop-color:#fbc642"
         offset="0"
         id="stop866" /><stop
         style="stop-opacity:1;stop-color:#ea7817"
         offset="0.840425"
         id="stop868" /><stop
         style="stop-opacity:1;stop-color:#ea7817"
         offset="1"
         id="stop870" /></linearGradient><clipPath
       clipPathUnits="userSpaceOnUse"
       id="clipPath886"><path
         d="m 3108.17,867.449 c -14.81,168.081 -75.48,294.071 -185.39,417.131 -121.39,-99.72 -220.47,-221.93 -254.04,-379.06 49.37,-63.11 174.69,-100.629 174.69,-100.629 0,0 176.5,8.461 264.74,62.558 z"
         id="path884" /></clipPath><linearGradient
       x1="0"
       y1="0"
       x2="1"
       y2="0"
       gradientUnits="userSpaceOnUse"
       gradientTransform="matrix(-356.532,-355.581,-355.581,356.532,3102.26,1166.09)"
       spreadMethod="pad"
       id="linearGradient894"><stop
         style="stop-opacity:1;stop-color:#f5edc2"
         offset="0"
         id="stop888" /><stop
         style="stop-opacity:1;stop-color:#709694"
         offset="0.840425"
         id="stop890" /><stop
         style="stop-opacity:1;stop-color:#709694"
         offset="1"
         id="stop892" /></linearGradient><clipPath
       clipPathUnits="userSpaceOnUse"
       id="clipPath906"><path
         d="m 3157.43,919.27 c -31.64,162.4 -113.36,318.83 -225.83,442.6 7.9,55.51 16.61,110.91 26.12,166.18 1.99,0.82 3.96,1.62 5.93,2.42 61.31,-19.67 136.5,-87.08 161.47,-109.42 l 8.25,-7.38 4.97,9.83 c 69.11,136.44 115.96,296.34 149.27,423.6 11.2,-8.31 22.04,-16.96 32.47,-25.93 -6,-288.58 -28.1,-612.84 -72.58,-898.08 -28.53,-1.41 -61.51,-2.367 -90.07,-3.82 m -29.26,521.77 c -44.85,39.67 -107.29,90.07 -162.45,106.51 l -2.88,0.85 -1.71,-0.68 c 24.54,139.74 54.18,278.63 88.86,416.28 77.35,-23.96 155.76,-59.44 222.9,-106.3 -32.46,-124.33 -77.88,-281.55 -144.72,-416.66"
         id="path904" /></clipPath><clipPath
       clipPathUnits="userSpaceOnUse"
       id="clipPath918"><path
         d="m 3133.37,1413.67 -8.25,7.38 c -24.97,22.34 -100.16,89.75 -161.47,109.42 -1.97,-0.8 -3.94,-1.6 -5.93,-2.42 1.12,6.56 2.26,13.12 3.41,19.67 l 1.71,0.68 2.88,-0.85 c 55.16,-16.44 117.6,-66.84 162.45,-106.51 66.84,135.11 112.26,292.33 144.72,416.66 4.97,-3.47 9.88,-7.01 14.72,-10.6 -33.31,-127.26 -80.16,-287.16 -149.27,-423.6 l -4.97,-9.83"
         id="path916" /></clipPath><linearGradient
       x1="0"
       y1="0"
       x2="1"
       y2="0"
       gradientUnits="userSpaceOnUse"
       gradientTransform="matrix(-624.23,-670.464,-646.614,640.449,3491.95,1812.16)"
       spreadMethod="pad"
       id="linearGradient928"><stop
         style="stop-opacity:1;stop-color:#f4c796"
         offset="0"
         id="stop920" /><stop
         style="stop-opacity:1;stop-color:#f4c796"
         offset="0.167598"
         id="stop922" /><stop
         style="stop-opacity:1;stop-color:#d53e29"
         offset="0.991477"
         id="stop924" /><stop
         style="stop-opacity:1;stop-color:#d53e29"
         offset="1"
         id="stop926" /></linearGradient></defs><sodipodi:namedview
     pagecolor="#343434"
     bordercolor="#666666"
     borderopacity="1"
     objecttolerance="10"
     gridtolerance="10"
     guidetolerance="10"
     inkscape:pageopacity="0"
     inkscape:pageshadow="2"
     inkscape:window-width="1920"
     inkscape:window-height="1166"
     id="namedview4"
     showgrid="false"
     inkscape:zoom="1.3416242"
     inkscape:cx="115.18961"
     inkscape:cy="304.71825"
     inkscape:window-x="-11"
     inkscape:window-y="-11"
     inkscape:window-maximized="1"
     inkscape:current-layer="g12" /><g
     id="g10"
     inkscape:groupmode="layer"
     inkscape:label="ink_ext_XXXXXX"
     transform="matrix(1.3333333,0,0,-1.3333333,-166.71469,1055.5169)"><g
       id="g12"
       transform="scale(0.1)"><path
         d="m 4240.49,3881.72 c 0,-118.93 -315.59,-215.36 -704.75,-215.36 -389.33,0 -704.88,96.43 -704.88,215.36 0,118.9 315.55,215.27 704.88,215.27 389.16,0 704.75,-96.37 704.75,-215.27"
         style="fill:#4f3849;fill-opacity:1;fill-rule:nonzero;stroke:none"
         id="path206" /><path
         d="m 1955.2,5054.5 -186.42,-42.11 -26.96,119.29 186.44,42.11 26.94,-119.29"
         style="fill:#b3aeaa;fill-opacity:1;fill-rule:nonzero;stroke:none"
         id="path228" /><path
         d="m 1821.09,5024.2 41.49,9.37 v 0 l -41.49,-9.37"
         style="fill:#dcd9d6;fill-opacity:1;fill-rule:nonzero;stroke:none"
         id="path230" /><path
         d="m 1768.89,5012.42 -11.95,52.8 92.88,20.97 c 4.12,-17.79 8.4,-35.42 12.76,-52.62 l -41.49,-9.37 -52.2,-11.78"
         style="fill:#95928f;fill-opacity:1;fill-rule:nonzero;stroke:none"
         id="path232" /><path
         d="m 2431.49,4958.28 c 18.61,-82.33 -33.1,-164.26 -115.42,-182.82 l -208.82,-47.18 c -82.32,-18.6 -143.58,46 -182.81,115.47 -39.2,69.51 -119.37,398.26 -116.23,514.52 3.15,116.33 33.13,164.26 115.45,182.85 l 208.83,47.16 c 82.35,18.59 164.19,-33.12 182.8,-115.47 l 116.2,-514.53"
         style="fill:#4f3849;fill-opacity:1;fill-rule:nonzero;stroke:none"
         id="path234" /><path
         d="m 2201.61,4749.6 26.27,5.94 v -0.01 l -26.27,-5.93 m -295,135.37 c -1.77,4.75 -3.57,9.74 -5.42,14.96 0.06,-0.06 0.13,-0.13 0.19,-0.2 1.77,-5.15 3.52,-10.08 5.23,-14.76"
         style="fill:#97939c;fill-opacity:1;fill-rule:nonzero;stroke:none"
         id="path236" /><path
         d="m 2078.98,4725.07 c -68.18,0 -119.91,57.45 -154.42,118.72 -5.39,9.4 -11.38,23.54 -17.95,41.18 -1.71,4.68 -3.46,9.61 -5.23,14.76 29.4,-31.97 65.61,-54.55 108.38,-54.55 9.18,0 18.66,1.04 28.44,3.25 l 148.34,33.51 c 13.44,-43.06 27.27,-85.3 41.34,-126.4 l -26.27,-5.94 -94.28,-21.29 c -9.74,-2.2 -19.19,-3.24 -28.35,-3.24"
         style="fill:#2e232a;fill-opacity:1;fill-rule:nonzero;stroke:none"
         id="path238" /><g
         id="g240"><g
           id="g242"
           clip-path="url(#clipPath246)"><path
             d="m 1808.35,5080.1 c 21.89,-96.81 -38.82,-192.99 -135.64,-214.85 -96.76,-21.86 -192.95,38.89 -214.82,135.68 -21.86,96.77 38.89,192.97 135.66,214.83 96.81,21.86 192.94,-38.89 214.8,-135.66"
             style="fill:url(#linearGradient254);fill-opacity:1;fill-rule:nonzero;stroke:none"
             id="path256" /></g></g><g
         id="g258"><g
           id="g260"
           clip-path="url(#clipPath264)"><path
             d="m 1808.46,5080.24 c 21.88,-96.9 -38.9,-193.1 -135.81,-215.02 -87.38,-19.71 -174.69,28.02 -206.22,109.55 41.19,-35.5 98.48,-51.71 156.03,-38.71 96.66,21.83 157.29,118.26 135.48,214.93 -2.04,8.94 -4.65,17.76 -8.4,26.01 28.67,-24.26 50,-57.34 58.92,-96.76"
             style="fill:url(#linearGradient272);fill-opacity:1;fill-rule:nonzero;stroke:none"
             id="path274" /></g></g><path
         d="m 4744.09,5684.4 186.39,42.1 -26.93,119.31 -186.39,-42.11 26.93,-119.3"
         style="fill:#b3aeaa;fill-opacity:1;fill-rule:nonzero;stroke:none"
         id="path276" /><path
         d="m 4833.35,5704.55 v 0.01 l 97.13,21.94 -26.93,119.29 0.07,0.02 26.97,-119.29 -97.24,-21.97 m 66.41,140.4 v 0.01 l 0.53,0.11 -0.53,-0.12"
         style="fill:#dcd9d6;fill-opacity:1;fill-rule:nonzero;stroke:none"
         id="path278" /><path
         d="m 4833.35,5704.56 c -3.3,16.13 -6.78,32.56 -10.39,49.06 -1.33,6.04 -2.67,12.13 -4.03,18.18 l 92.6,20.92 -11.77,52.23 0.53,0.12 3.26,0.72 26.93,-119.29 -97.13,-21.94"
         style="fill:#95928f;fill-opacity:1;fill-rule:nonzero;stroke:none"
         id="path280" /><path
         d="m 4355.37,5392.81 c 18.6,-82.33 100.48,-134.07 182.84,-115.45 l 208.79,47.15 c 82.36,18.59 111.96,111.54 115.45,182.82 3.51,71.35 -74.48,433.82 -116.19,514.55 -41.77,80.71 -100.46,134.07 -182.87,115.48 l -208.77,-47.18 c -82.35,-18.6 -134.08,-100.47 -115.46,-182.82 l 116.21,-514.55"
         style="fill:#4f3849;fill-opacity:1;fill-rule:nonzero;stroke:none"
         id="path282" /><path
         d="m 4648.48,5302.24 v 0.02 l 98.52,22.25 c 38.42,8.68 65.37,33.54 83.53,64.83 -18.15,-31.3 -45.05,-56.15 -83.46,-64.83 l -98.59,-22.27 M 4860,5480.73 c 1.23,9.07 2.03,17.99 2.45,26.6 0.46,9.44 -0.5,23.99 -2.62,42.31 2.13,-18.3 3.1,-32.84 2.65,-42.27 -0.43,-8.62 -1.24,-17.56 -2.48,-26.64 m -53.21,343.22 c -20.92,86.77 -43.68,165.32 -60.53,197.93 -1.41,2.71 -2.83,5.4 -4.27,8.05 1.45,-2.66 2.89,-5.34 4.3,-8.05 16.85,-32.54 39.6,-111.13 60.51,-197.93 h -0.01"
         style="fill:#97939c;fill-opacity:1;fill-rule:nonzero;stroke:none"
         id="path284" /><path
         d="m 4818.92,5771.8 c -3.93,17.5 -8,34.99 -12.13,52.15 h 0.01 c 4.14,-17.17 8.2,-34.63 12.13,-52.15 h -0.01"
         style="fill:#676369;fill-opacity:1;fill-rule:nonzero;stroke:none"
         id="path286" /><path
         d="m 4822.96,5753.62 c -1.33,6.06 -2.67,12.12 -4.04,18.18 h 0.01 c 1.36,-6.05 2.7,-12.14 4.03,-18.18"
         style="fill:#555156;fill-opacity:1;fill-rule:nonzero;stroke:none"
         id="path288" /><path
         d="m 4648.48,5302.26 c -8.07,49.24 -17.58,99.51 -28.35,150.36 l 53.27,12.03 c 82.65,18.66 112.16,111.54 115.47,182.83 2.86,58.05 -48.15,308.86 -89.88,443.68 15.94,-16.96 30.27,-38.01 43,-61.23 1.44,-2.65 2.86,-5.34 4.27,-8.05 16.85,-32.61 39.61,-111.16 60.53,-197.93 4.13,-17.16 8.2,-34.65 12.13,-52.15 1.37,-6.06 2.71,-12.12 4.04,-18.18 17.09,-78.06 31.15,-154.68 36.87,-203.98 2.12,-18.32 3.08,-32.87 2.62,-42.31 -0.42,-8.61 -1.22,-17.53 -2.45,-26.6 -4.23,-31 -13.42,-63.71 -29.47,-91.39 -18.16,-31.29 -45.11,-56.15 -83.53,-64.83 l -98.52,-22.25"
         style="fill:#2e232a;fill-opacity:1;fill-rule:nonzero;stroke:none"
         id="path290" /><g
         id="g292"><g
           id="g294"
           clip-path="url(#clipPath298)"><path
             d="m 4865.66,5770.64 c 21.84,-96.81 118.06,-157.55 214.9,-135.66 96.71,21.83 157.44,118.02 135.6,214.83 -21.83,96.77 -118.06,157.5 -214.76,135.68 -96.84,-21.88 -157.6,-118.08 -135.74,-214.85"
             style="fill:url(#linearGradient306);fill-opacity:1;fill-rule:nonzero;stroke:none"
             id="path308" /></g></g><g
         id="g310"><g
           id="g312"
           clip-path="url(#clipPath316)"><path
             d="m 5216.2,5849.93 c 21.89,-96.93 -38.83,-193.1 -135.74,-214.99 -83.86,-18.92 -167.59,24.24 -202.52,99.72 38.46,-22.98 85.34,-32.12 132.74,-21.4 96.63,21.82 157.37,117.98 135.5,214.92 -2.84,12.54 -6.8,24.49 -12.09,35.51 40.23,-24.11 70.93,-64.21 82.11,-113.76"
             style="fill:url(#linearGradient324);fill-opacity:1;fill-rule:nonzero;stroke:none"
             id="path326" /></g></g><g
         id="g328"><g
           id="g330"
           clip-path="url(#clipPath334)"><path
             d="m 1559.08,5170.24 c -117.25,-26.48 -76.17,-208.29 41.05,-181.81 117.16,26.48 76.11,208.25 -41.05,181.81"
             style="fill:url(#linearGradient342);fill-opacity:1;fill-rule:nonzero;stroke:none"
             id="path344" /></g></g><path
         d="m 1955.34,5038.34 c -10.57,0 -21.53,5.03 -29.07,16.31 -45.44,67.82 -64.1,177.61 -69.7,257.18 -5.47,77.95 5.6,164.79 83.82,201.84 4.97,2.36 9.81,3.4 14.38,3.4 29.44,0 47.57,-43.49 15.7,-59.65 -124.03,-62.78 2.68,-287.12 16.76,-380 3.64,-23.97 -13.56,-39.08 -31.89,-39.08"
         style="fill:#735c79;fill-opacity:1;fill-rule:nonzero;stroke:none"
         id="path346" /><path
         d="m 4653.26,5929.95 c -10.74,0 -21.65,5.01 -28.52,16.38 -24.36,40.36 -60.13,67.02 -106.77,67.02 -3.43,0 -6.93,-0.15 -10.48,-0.44 -1.11,-0.09 -2.18,-0.14 -3.22,-0.14 -37,0 -35.78,56.77 -2.68,66.9 12.53,3.82 25.32,5.62 38.06,5.62 66.97,0 132.1,-49.8 145.86,-116.33 4.93,-23.57 -13.4,-39.01 -32.25,-39.01"
         style="fill:#735c79;fill-opacity:1;fill-rule:nonzero;stroke:none"
         id="path348" /><g
         id="g350"><g
           id="g352"
           clip-path="url(#clipPath356)"><path
             d="m 4998.51,5963.89 c -117.22,-26.44 -76.14,-208.22 41.04,-181.75 117.2,26.49 76.15,208.23 -41.04,181.75"
             style="fill:url(#linearGradient364);fill-opacity:1;fill-rule:nonzero;stroke:none"
             id="path366" /></g></g><path
         d="m 3528.67,4035.82 c 186.83,22.88 342.18,8.93 347.35,-31.15 4.79,-40.25 -142.72,-91.01 -329.55,-114.15 -186.76,-22.58 -341.85,-8.89 -346.97,31.37 -4.7,40.18 142.68,91.1 329.17,113.93"
         style="fill:#2a1f25;fill-opacity:1;fill-rule:nonzero;stroke:none"
         id="path368" /><path
         d="m 3512.63,4169.45 c 186.44,23.05 342.06,8.97 347.09,-31.19 4.56,-40.04 -142.78,-91.1 -329.6,-113.9 -186.9,-22.73 -342.08,-8.85 -347.12,31.22 -4.53,40.14 142.68,91.03 329.63,113.87"
         style="fill:#2a1f25;fill-opacity:1;fill-rule:nonzero;stroke:none"
         id="path370" /><path
         d="m 3496.17,4303.25 c 186.67,22.94 342.18,8.85 347.01,-31.09 4.91,-40 -142.64,-91.37 -329.33,-114.06 -59.78,-7.33 -116.32,-10.87 -165.88,-10.87 -104.94,-0.3 -177.75,15.01 -181.32,42.21 -4.75,40.18 142.66,91.11 329.52,113.81"
         style="fill:#2a1f25;fill-opacity:1;fill-rule:nonzero;stroke:none"
         id="path372" /><g
         id="g374"><g
           id="g376"
           clip-path="url(#clipPath380)"><path
             d="m 2719.67,4155.31 c -115.24,0 -199.2,16.1 -234.5,53.62 -70.48,74.96 -168.66,287.78 -257.29,546.6 v 0.01 c -14.07,41.1 -27.9,83.34 -41.34,126.4 -69.8,223.56 -129.07,468.44 -156.88,683.12 -28.28,218.25 -24.05,405.33 34.69,506.91 49.43,85.14 190.65,173.48 378.36,254.1 11.2,4.71 22.6,9.8 34.04,14.58 19.24,7.78 39.37,15.81 59.55,23.51 11.84,4.56 23.96,9.18 35.88,13.41 300.39,112.03 679.1,202.29 997.33,238.15 13.78,1.54 27.16,3.26 40.67,4.47 18.98,2.09 37.75,3.82 56.24,5.19 12.6,0.95 24.94,1.86 37.34,2.48 46.08,2.98 90.23,4.53 131.94,4.53 166.12,0 293.5,-24.62 349.46,-81.41 72.66,-73.94 159.3,-239.77 239.54,-444.96 77.05,-197.02 148.2,-430.35 195.43,-653.4 10.77,-50.85 20.28,-101.12 28.35,-150.36 v -0.02 c 46.41,-283.29 44.58,-530.73 -46.17,-637.34 -138.2,-162.28 -1347.47,-509.59 -1882.64,-509.59 m -10.95,156.04 c -1.75,0 -3.54,-0.26 -5.3,-0.81 l -167.32,-51.81 c -9.39,-2.91 -14.63,-12.88 -11.7,-22.27 l 1.2,-3.85 c 2.35,-7.62 9.37,-12.54 16.97,-12.54 1.74,0 3.52,0.26 5.27,0.8 l 167.38,51.82 c 9.35,2.91 14.62,12.89 11.69,22.28 l -1.19,3.84 c -2.35,7.65 -9.39,12.54 -17,12.54 m -28.46,91.87 c -1.74,0 -3.5,-0.26 -5.25,-0.8 l -167.32,-51.83 c -9.41,-2.89 -14.64,-12.87 -11.73,-22.28 l 1.18,-3.84 c 2.36,-7.64 9.37,-12.54 16.97,-12.55 1.74,0 3.52,0.27 5.28,0.81 l 167.36,51.82 c 9.36,2.91 14.65,12.9 11.7,22.27 l -1.18,3.84 c -2.36,7.65 -9.42,12.56 -17.01,12.56 m 1898.33,327.9 c -1.56,0 -3.14,-0.21 -4.71,-0.64 l -168.99,-46.09 c -9.52,-2.59 -15.09,-12.37 -12.52,-21.86 l 1.08,-3.89 c 2.16,-7.92 9.34,-13.12 17.16,-13.12 1.54,0 3.11,0.2 4.67,0.63 l 169.04,46.1 c 9.47,2.58 15.05,12.37 12.44,21.85 l -1.04,3.9 c -2.17,7.91 -9.33,13.12 -17.13,13.12 m -25.32,92.78 c -1.55,0 -3.13,-0.21 -4.7,-0.64 l -168.99,-46.08 c -9.5,-2.59 -15.12,-12.39 -12.51,-21.88 l 1.07,-3.88 c 2.15,-7.92 9.33,-13.13 17.17,-13.13 1.55,0 3.12,0.2 4.69,0.63 l 168.99,46.1 c 9.5,2.59 15.07,12.37 12.48,21.85 l -1.05,3.91 c -2.17,7.91 -9.33,13.12 -17.15,13.12 m -138.38,455.94 c -3.18,0 -6.42,-0.41 -9.63,-1.29 l -586.93,-160.1 c -19.51,-5.33 -31.02,-25.45 -25.67,-44.96 l 32.35,-118.7 c 4.48,-16.28 19.21,-27 35.32,-27 3.2,0 6.45,0.42 9.68,1.31 l 586.88,160.1 c 19.48,5.32 30.99,25.46 25.68,44.95 l -32.39,118.71 c -4.44,16.28 -19.21,26.98 -35.29,26.98 M 3210.85,5146.51 c -1.96,0 -3.92,-0.16 -5.89,-0.49 -16.39,-3.97 -26.49,-20.5 -22.49,-36.88 25.71,-106.32 126.24,-149.76 224.92,-149.76 18.28,0 36.48,1.49 54.15,4.34 7.18,1.16 14.32,2.55 21.52,4.15 112.53,25.44 221.18,107.3 210.38,237.14 -1.37,15.97 -14.7,28.03 -30.47,28.03 -0.85,0 -1.7,-0.03 -2.56,-0.1 -16.76,-1.25 -29.35,-16.17 -27.9,-33 8.28,-99.38 -87.85,-160.78 -180.82,-175.84 -15.38,-2.49 -31.08,-3.8 -46.64,-3.8 -74.34,0 -145.42,29.91 -163.2,103.24 -3.48,14.43 -16.77,22.97 -31,22.97 m -318.97,207.5 c -10.04,0 -20.24,-1.11 -30.44,-3.41 -74.13,-16.77 -120.6,-90.42 -103.88,-164.54 14.44,-63.91 71.2,-107.33 134.08,-107.33 10.04,0 20.22,1.1 30.42,3.4 74.11,16.73 120.69,90.45 103.98,164.55 -14.45,63.93 -71.25,107.33 -134.16,107.33 m 976.85,220.62 c -10.04,0 -20.24,-1.11 -30.44,-3.42 -74.17,-16.73 -120.64,-90.42 -103.88,-164.56 14.41,-63.87 71.16,-107.29 134.04,-107.29 10.05,0 20.25,1.11 30.46,3.42 74.11,16.73 120.65,90.45 103.95,164.53 -14.46,63.9 -71.25,107.32 -134.13,107.32"
             style="fill:url(#linearGradient388);fill-opacity:1;fill-rule:nonzero;stroke:none"
             id="path390" /></g></g><g
         id="g394"><g
           id="g396"
           clip-path="url(#clipPath400)"><path
             d="m 2167.06,6052.09 c -117.2,-26.45 -76.11,-208.23 41.05,-181.75 117.25,26.48 76.2,208.23 -41.05,181.75"
             style="fill:url(#linearGradient408);fill-opacity:1;fill-rule:nonzero;stroke:none"
             id="path410" /></g></g><g
         id="g412"><g
           id="g414"
           clip-path="url(#clipPath418)"><path
             d="m 2891.64,5078.73 c -62.88,0 -119.64,43.42 -134.08,107.33 -16.72,74.12 29.75,147.77 103.88,164.54 10.2,2.3 20.4,3.41 30.44,3.41 62.91,0 119.71,-43.4 134.16,-107.33 16.71,-74.1 -29.87,-147.82 -103.98,-164.55 -10.2,-2.3 -20.38,-3.4 -30.42,-3.4"
             style="fill:url(#linearGradient426);fill-opacity:1;fill-rule:nonzero;stroke:none"
             id="path428" /></g></g><g
         id="g430"><g
           id="g432"
           clip-path="url(#clipPath436)"><path
             d="m 3868.45,5299.36 c -62.88,0 -119.63,43.42 -134.04,107.29 -16.76,74.14 29.71,147.83 103.88,164.56 10.2,2.31 20.4,3.42 30.44,3.42 62.88,0 119.67,-43.42 134.13,-107.32 16.7,-74.08 -29.84,-147.8 -103.95,-164.53 -10.21,-2.31 -20.41,-3.42 -30.46,-3.42"
             style="fill:url(#linearGradient444);fill-opacity:1;fill-rule:nonzero;stroke:none"
             id="path446" /></g></g><g
         id="g448"><g
           id="g450"
           clip-path="url(#clipPath454)"><path
             d="m 3407.39,4959.38 c -98.68,0 -199.21,43.44 -224.92,149.76 -4,16.38 6.1,32.91 22.49,36.88 1.97,0.33 3.93,0.49 5.89,0.49 14.23,0 27.52,-8.54 31,-22.97 17.78,-73.33 88.86,-103.24 163.2,-103.24 15.56,0 31.26,1.31 46.64,3.8 92.97,15.06 189.1,76.46 180.82,175.84 -1.45,16.83 11.14,31.75 27.9,33 0.86,0.07 1.71,0.1 2.56,0.1 15.77,0 29.1,-12.06 30.47,-28.03 10.8,-129.84 -97.85,-211.7 -210.38,-237.14 -7.2,-1.6 -14.34,-2.99 -21.52,-4.15 -17.67,-2.85 -35.87,-4.34 -54.15,-4.34"
             style="fill:url(#linearGradient462);fill-opacity:1;fill-rule:nonzero;stroke:none"
             id="path464" /></g></g><path
         d="m 2835.95,5370.98 c -74.12,-16.73 -120.6,-90.39 -103.87,-164.55 16.74,-74.16 90.41,-120.65 164.53,-103.93 74.15,16.76 120.66,90.39 103.95,164.55 -16.8,74.16 -90.46,120.68 -164.61,103.93"
         style="fill:#322c3a;fill-opacity:1;fill-rule:nonzero;stroke:none"
         id="path466" /><path
         d="m 3977.37,5487.7 c 16.74,-74.17 -29.8,-147.78 -103.91,-164.56 -74.16,-16.73 -147.79,29.77 -164.53,103.93 -16.73,74.16 29.71,147.79 103.87,164.55 74.14,16.73 147.84,-29.77 164.57,-103.92"
         style="fill:#322c3a;fill-opacity:1;fill-rule:nonzero;stroke:none"
         id="path468" /><path
         d="m 3457.58,4988.27 c -7.17,-1.62 -14.35,-3.01 -21.52,-4.16 -113.04,-18.32 -248.6,19.42 -279.07,145.38 -4,16.4 6.1,32.95 22.48,36.92 16.31,2.74 32.94,-6.09 36.96,-22.53 21.47,-88.64 120.85,-113.78 209.86,-99.38 92.88,15 189.02,76.4 180.74,175.77 -1.41,16.83 11.13,31.8 27.89,33.01 16.91,1.46 31.62,-11.07 33.07,-27.86 10.83,-129.91 -97.85,-211.73 -210.41,-237.15"
         style="fill:#322c3a;fill-opacity:1;fill-rule:nonzero;stroke:none"
         id="path470" /><path
         d="m 3838.76,5508.31 c -73.37,-16.58 -47.71,-130.31 25.68,-113.76 73.37,16.59 47.65,130.32 -25.68,113.76 z m -958.68,-336.06 c -73.29,-16.58 -99.01,97.18 -25.68,113.73 73.34,16.55 99.05,-97.16 25.68,-113.73"
         style="fill:#ffffff;fill-opacity:1;fill-rule:nonzero;stroke:none"
         id="path472" /><path
         d="m 4456.89,5089.2 -586.88,-160.1 c -19.55,-5.34 -39.64,6.18 -45,25.69 l -32.35,118.7 c -5.35,19.51 6.16,39.63 25.67,44.96 l 586.93,160.1 c 19.47,5.31 39.6,-6.19 44.92,-25.69 l 32.39,-118.71 c 5.31,-19.49 -6.2,-39.63 -25.68,-44.95"
         style="fill:#322c3a;fill-opacity:1;fill-rule:nonzero;stroke:none"
         id="path474" /><path
         d="m 4497.57,4942.56 -337.99,-92.2 c -18.98,-5.18 -38.56,6.02 -43.72,24.98 l -2.11,7.77 c -5.17,18.98 5.97,38.56 24.95,43.73 l 337.98,92.2 c 19,5.17 38.53,-6.02 43.75,-24.98 l 2.11,-7.78 c 5.17,-18.98 -6.03,-38.55 -24.97,-43.72"
         style="fill:#ffffff;fill-opacity:1;fill-rule:nonzero;stroke:none"
         id="path476" /><g
         id="g478"><g
           id="g480"
           clip-path="url(#clipPath484)"><path
             d="m 4385.31,4738.29 c -7.84,0 -15.02,5.21 -17.17,13.13 l -1.07,3.88 c -2.61,9.49 3.01,19.29 12.51,21.88 l 168.99,46.08 c 1.57,0.43 3.15,0.64 4.7,0.64 7.82,0 14.98,-5.21 17.15,-13.12 l 1.05,-3.91 c 2.59,-9.48 -2.98,-19.26 -12.48,-21.85 L 4390,4738.92 c -1.57,-0.43 -3.14,-0.63 -4.69,-0.63"
             style="fill:url(#linearGradient492);fill-opacity:1;fill-rule:nonzero;stroke:none"
             id="path494" /></g></g><g
         id="g496"><g
           id="g498"
           clip-path="url(#clipPath502)"><path
             d="m 4410.61,4645.52 c -7.82,0 -15,5.2 -17.16,13.12 l -1.08,3.89 c -2.57,9.49 3,19.27 12.52,21.86 l 168.99,46.09 c 1.57,0.43 3.15,0.64 4.71,0.64 7.8,0 14.96,-5.21 17.13,-13.12 l 1.04,-3.9 c 2.61,-9.48 -2.97,-19.27 -12.44,-21.85 l -169.04,-46.1 c -1.56,-0.43 -3.13,-0.63 -4.67,-0.63"
             style="fill:url(#linearGradient510);fill-opacity:1;fill-rule:nonzero;stroke:none"
             id="path512" /></g></g><path
         d="m 2486.67,4478.61 334.64,103.65 c 18.8,5.81 29.31,25.77 23.48,44.54 l -2.39,7.71 c -5.83,18.76 -25.73,29.29 -44.53,23.48 l -334.64,-103.65 c -18.81,-5.82 -29.33,-25.76 -23.49,-44.54 l 2.37,-7.7 c 5.84,-18.79 25.75,-29.31 44.56,-23.49"
         style="fill:#ffffff;fill-opacity:1;fill-rule:nonzero;stroke:none"
         id="path514" /><g
         id="g516"><g
           id="g518"
           clip-path="url(#clipPath522)"><path
             d="m 2514.11,4311.92 c -7.6,0.01 -14.61,4.91 -16.97,12.55 l -1.18,3.84 c -2.91,9.41 2.32,19.39 11.73,22.28 l 167.32,51.83 c 1.75,0.54 3.51,0.8 5.25,0.8 7.59,0 14.65,-4.91 17.01,-12.56 l 1.18,-3.84 c 2.95,-9.37 -2.34,-19.36 -11.7,-22.27 l -167.36,-51.82 c -1.76,-0.54 -3.54,-0.81 -5.28,-0.81"
             style="fill:url(#linearGradient530);fill-opacity:1;fill-rule:nonzero;stroke:none"
             id="path532" /></g></g><g
         id="g534"><g
           id="g536"
           clip-path="url(#clipPath540)"><path
             d="m 2542.57,4220.07 c -7.6,0 -14.62,4.92 -16.97,12.54 l -1.2,3.85 c -2.93,9.39 2.31,19.36 11.7,22.27 l 167.32,51.81 c 1.76,0.55 3.55,0.81 5.3,0.81 7.61,0 14.65,-4.89 17,-12.54 l 1.19,-3.84 c 2.93,-9.39 -2.34,-19.37 -11.69,-22.28 l -167.38,-51.82 c -1.75,-0.54 -3.53,-0.8 -5.27,-0.8"
             style="fill:url(#linearGradient548);fill-opacity:1;fill-rule:nonzero;stroke:none"
             id="path550" /></g></g><path
         d="m 3925.82,4993.26 c -23.21,0 -44.5,15.43 -50.88,38.9 -7.68,28.14 8.88,57.15 37.01,64.81 4.65,1.27 9.33,1.88 13.93,1.88 23.21,0 44.51,-15.42 50.93,-38.89 7.64,-28.15 -8.96,-57.15 -37.08,-64.83 -4.65,-1.27 -9.32,-1.87 -13.91,-1.87"
         style="fill:#2e212b;fill-opacity:1;fill-rule:nonzero;stroke:none"
         id="path552" /><path
         d="m 4069.1,5032.34 c -23.22,0 -44.51,15.42 -50.91,38.89 -7.69,28.14 8.91,57.16 37.04,64.83 4.66,1.27 9.34,1.87 13.94,1.87 23.21,0 44.47,-15.42 50.88,-38.89 7.67,-28.14 -8.92,-57.14 -37.02,-64.83 -4.65,-1.26 -9.33,-1.87 -13.93,-1.87"
         style="fill:#2e212b;fill-opacity:1;fill-rule:nonzero;stroke:none"
         id="path554" /><path
         d="m 4263.3,5138.11 c 7.7,-28.14 -8.9,-57.15 -37.03,-64.82 -28.13,-7.66 -57.13,8.91 -64.79,37.04 -7.7,28.14 8.87,57.12 37,64.81 28.13,7.68 57.17,-8.9 64.82,-37.03"
         style="fill:#ffffff;fill-opacity:1;fill-rule:nonzero;stroke:none"
         id="path556" /><path
         d="m 4406.56,5177.19 c 7.68,-28.14 -8.88,-57.14 -37.01,-64.82 -28.11,-7.67 -57.17,8.9 -64.82,37.04 -7.7,28.13 8.92,57.15 37.03,64.81 28.13,7.68 57.14,-8.91 64.8,-37.03"
         style="fill:#ffffff;fill-opacity:1;fill-rule:nonzero;stroke:none"
         id="path558" /><g
         id="g582"><g
           id="g584"
           clip-path="url(#clipPath588)"><path
             d="m 3359.01,6245.51 -401.33,-92.62 c -46.68,-10.77 -93.69,18.63 -104.46,65.32 -10.74,46.67 18.62,93.69 65.27,104.46 l 401.37,92.62 c 46.69,10.78 93.69,-18.63 104.46,-65.3 10.77,-46.68 -18.57,-93.71 -65.31,-104.48"
             style="fill:url(#linearGradient596);fill-opacity:1;fill-rule:nonzero;stroke:none"
             id="path598" /></g></g><path
         d="m 3339.32,6399.35 c -5.13,0 -10.33,-0.6 -15.38,-1.77 l -401.37,-92.61 c -17.83,-4.13 -33.06,-15.01 -42.82,-30.69 -9.82,-15.68 -12.94,-34.13 -8.81,-51.99 8.28,-35.97 46.22,-60.12 82.65,-51.7 l 401.33,92.62 c 37.08,8.55 60.26,45.65 51.73,82.69 -7.18,30.96 -35.45,53.45 -67.33,53.45 z m -401.1,-266.86 c -48.59,0 -91.76,34.33 -102.69,81.64 -6.31,27.29 -1.55,55.5 13.38,79.4 14.94,23.91 38.19,40.54 65.5,46.84 l 401.37,92.62 c 7.72,1.78 15.67,2.7 23.54,2.7 48.59,0 91.8,-34.33 102.71,-81.62 13.04,-56.57 -22.34,-113.21 -78.93,-126.27 l -401.33,-92.61 c -7.72,-1.79 -15.67,-2.7 -23.55,-2.7"
         style="fill:#322c3a;fill-opacity:1;fill-rule:nonzero;stroke:none"
         id="path600" /><g
         id="g2683"
         transform="matrix(-2.3452475,-2.4208555,-2.4208555,2.3452475,35813.202,12380.042)"><path
           d="m 8261.678,5756.9812 c 0,0 125.7199,-60.9 196.4499,-27.04 70.73,33.87 146.3801,155.5 40.29,233.49 -106.0899,77.99 -1.0999,4.68 -1.0999,4.68 0,0 45.1999,71.03 -61.7501,114.27 -106.95,43.24 -188.5,-25.03 -188.5,-25.03 0,0 39.6601,96.52 -9.9399,156.35 -27.81,33.54 -62.91,13.23 -108.04,-7.08 -35.37,-15.92 -76.8901,-31.83 -125.87,-21.84 -111.51,22.76 -211.67,11.38 -182.0701,-70.54 29.61,-81.92 -156.99,-38.69 -159.26,-172.94 -2.29,-134.26 106.55,-211.75 70.54,-253.73 -36.02,-41.97 -31.04,-247.4 -31.04,-247.4 l 20.25,-91.08 c 0,0 60.9701,-3.98 101.8701,32.42 40.9,36.41 146.93,136.89 180.3899,167.44 33.45,30.54 154.2001,111.05 167.42,110.29 13.23,-0.77 90.3601,97.74 90.3601,97.74"
           style="fill:#f0d06d;fill-opacity:1;fill-rule:nonzero;stroke:#000000;stroke-width:7.5;stroke-miterlimit:4;stroke-dasharray:none;stroke-opacity:1"
           id="path178-4" /><path
           d="m 7706.5579,5969.2112 c -0.09,-0.21 -12.08,-25.21 -12.09,-60.4 -0.03,-32.55 10.39,-73.91 50.01,-111.68 l 3.5301,3.7 c -38.5401,36.8 -48.4101,76.48 -48.4301,107.98 0,17.01 2.91,31.61 5.82,41.93 1.46,5.16 2.91,9.25 3.99,12.04 0.54,1.4 0.99,2.46 1.3,3.18 l 0.47,1.04 -4.6,2.21"
           style="fill:#4450ab;fill-opacity:1;fill-rule:nonzero;stroke:none;stroke-width:0.999997"
           id="path182-0" /><path
           d="m 7756.2779,5931.2512 c -0.1899,-0.27 -11.2099,-16.35 -11.22,-44.3 -0.01,-22.81 7.3901,-53.43 33.6901,-89.48 l 4.13,3.01 c -25.7601,35.33 -32.7001,64.77 -32.71,86.47 0,13.29 2.6299,23.7 5.2299,30.77 1.3,3.53 2.59,6.22 3.5501,8.01 l 1.15,2.01 0.38,0.61 -4.2,2.9"
           style="fill:#4450ab;fill-opacity:1;fill-rule:nonzero;stroke:none;stroke-width:0.999997"
           id="path184-1" /><path
           d="m 7795.308,5889.7312 c -0.1101,-0.23 -5.41,-11.96 -5.41,-30.99 -0.01,-17.12 4.32,-40.16 20.53,-65.8 l 4.32,2.73 c -15.6801,24.83 -19.7301,46.8 -19.74,63.07 0,9.04 1.26,16.32 2.51,21.31 0.63,2.49 1.2499,4.41 1.71,5.7 l 0.54,1.44 0.1899,0.43 -4.65,2.11"
           style="fill:#4450ab;fill-opacity:1;fill-rule:nonzero;stroke:none;stroke-width:0.999997"
           id="path186-0" /><path
           d="m 8447.458,5962.4812 c 5.2299,-13.06 8.1199,-28.7 8.1099,-45.11 0.01,-29.33 -9.2,-61.06 -30.23,-85.35 -21.0399,-24.28 -53.84,-41.34 -101.8599,-41.37 -8.1201,0 -16.6701,0.49 -25.6701,1.52 l -0.5799,-5.07 c 9.18,-1.06 17.92,-1.56 26.25,-1.56 49.22,-0.03 83.75,17.7 105.7199,43.14 21.99,25.42 31.48,58.32 31.48,88.69 0,17.01 -2.97,33.24 -8.4799,47.01 l -4.74,-1.9"
           style="fill:#4450ab;fill-opacity:1;fill-rule:nonzero;stroke:none;stroke-width:0.999997"
           id="path188-2" /><path
           d="m 8417.8979,5893.4212 -0.2602,-0.58 c -1.3901,-3 -8.3301,-17.01 -21.77,-30.16 -13.46,-13.15 -33.24,-25.41 -60.72,-25.42 -10.9701,0 -23.2,1.96 -36.79,6.66 l -1.67,-4.83 c 14.07,-4.87 26.88,-6.94 38.46,-6.94 31.02,-0.01 52.9999,14.89 67.02,29.65 14.0499,14.77 20.3499,29.43 20.4299,29.61 l -4.7,2.01"
           style="fill:#4450ab;fill-opacity:1;fill-rule:nonzero;stroke:none;stroke-width:0.999997"
           id="path190-6" /><path
           d="m 8258.278,5533.6112 v 0 0"
           style="fill:#383b9b;fill-opacity:1;fill-rule:nonzero;stroke:none;stroke-width:0.999997"
           id="path266" /><path
           d="m 8237.128,6030.8012 c 0,0 22.46,92.54 131.69,124.4 0,0 -114.53,-13.64 -169.91,-130.46 -55.37,-116.82 38.22,6.06 38.22,6.06"
           style="fill:#f0d06d;fill-opacity:1;fill-rule:nonzero;stroke:none;stroke-width:0.999997"
           id="path296-4" /><path
           d="m 8223.738,6013.2112 c 0,0 37.31,87.62 150.27,101.17 0,0 -115.23,5.28 -188.96,-100.9 -73.7401,-106.19 38.69,-0.27 38.69,-0.27"
           style="fill:#f0d06d;fill-opacity:1;fill-rule:nonzero;stroke:none;stroke-width:0.999997"
           id="path298" /></g></g></g></svg>
